<svg width="24" height="24" viewBox="0 0 24 24" fill="none" xmlns="http://www.w3.org/2000/svg">
<g clip-path="url(#clip0_2836_12246)">
<path d="M24 0H0V24H24V0Z" fill="white" fill-opacity="0.01"/>
<path d="M21 19.5V4.50001C21 3.67158 20.3284 3.00002 19.5 3.00002L4.5 3C3.67157 3 3 3.67157 3 4.5L3.00003 19.5C3.00003 20.3285 3.6716 21 4.50003 21H19.5C20.3284 21 21 20.3285 21 19.5Z" stroke="#333333" stroke-width="2" stroke-linejoin="round"/>
<path d="M12.0002 9.15796L10.5524 12.1132L7.26367 12.5901L9.64602 14.9192L9.07652 18.158L12.0002 16.5994L14.9244 18.158L14.3591 14.9192L16.7373 12.5901L13.4669 12.1132L12.0002 9.15796Z" stroke="#333333" stroke-width="2" stroke-linejoin="round"/>
<path d="M9.1582 6.31592H14.8424" stroke="#333333" stroke-width="2" stroke-linecap="round" stroke-linejoin="round"/>
</g>
<defs>
<clipPath id="clip0_2836_12246">
<rect width="24" height="24" fill="white"/>
</clipPath>
</defs>
</svg>
