<svg width="46" height="46" viewBox="0 0 46 46" fill="none" xmlns="http://www.w3.org/2000/svg">
<path fill-rule="evenodd" clip-rule="evenodd" d="M29.116 8.79757C29.9337 7.9526 30.2063 6.50797 29.116 5.60849L24.7549 0.89301C24.2098 0.42964 23.6646 0.184326 23.1195 0.184326C22.3018 0.184326 21.7566 0.42964 21.484 0.89301L16.8503 5.60849C16.0326 6.50797 16.0326 7.9526 16.8503 8.79757C17.9406 9.66979 19.3035 9.64254 20.1212 8.74305L20.6663 8.08888V26.1603L6.22008 36.8996V36.2182C6.49265 34.9916 5.67494 33.7923 4.58466 33.547C3.2218 33.3017 2.13152 34.0921 1.85895 35.3187L0.496094 41.7514C0.496094 42.351 0.496094 42.978 0.768665 43.4686C1.31381 43.9865 1.85895 44.3135 2.40409 44.4226L8.94579 45.4038C10.0361 45.5946 11.3989 44.7497 11.3989 43.5231C11.6715 42.2693 10.8538 41.1245 9.49093 40.9337L8.40065 40.7701L23.1195 30.1126L37.5657 40.7701L36.748 40.9337C35.3852 41.1245 34.5675 42.2693 34.84 43.5231C34.84 44.7497 36.2029 45.5946 37.2932 45.4038L43.8349 44.4226C44.38 44.3135 44.9251 43.9865 45.1977 43.4686C45.7429 42.978 45.7429 42.351 45.7429 41.7514L44.38 35.3187C44.1074 34.0921 43.0171 33.3017 41.6543 33.547C40.564 33.7923 39.7463 34.9916 40.0189 36.2182V36.9269L25.3 26.1603V8.08888L25.8452 8.74305C26.9355 9.64254 28.2983 9.66979 29.116 8.79757Z" fill="black"/>
</svg>
