<svg width="24" height="24" viewBox="0 0 24 24" fill="none" xmlns="http://www.w3.org/2000/svg">
<path d="M9.50049 20.5C6.75049 19.125 4.00113 15 2.5008 12.5C1.00047 10 4.15709 7.65625 6.00069 9.5C7.84429 11.3438 8.00069 11.5 8.00069 11.5V8.75C8.00069 7.7835 8.78419 7 9.75069 7C10.7172 7 11.5007 7.7835 11.5007 8.75V8C11.5007 7.0335 12.2842 6.25 13.2507 6.25C14.2172 6.25 15.0007 7.0335 15.0007 8V8.75C15.0007 7.7835 15.7842 7 16.7507 7C17.7172 7 18.5007 7.7835 18.5007 8.75V3.75C18.5007 2.7835 19.2842 2 20.2507 2C21.2172 2 22.0007 2.7835 22.0007 3.75V14.4831C22.0007 15.4844 21.8156 16.4871 21.273 17.3286C20.632 18.3226 19.5563 19.6514 18.0005 20.5C15.2504 22 12.2505 21.875 9.50049 20.5Z" stroke="#333333" stroke-width="2" stroke-linecap="round" stroke-linejoin="round"/>
</svg>
